<?xml version="1.0" encoding="UTF-8"?>
<svg version="1.1" xmlns="http://www.w3.org/2000/svg" width="64" height="64">
<path d="M0 0 C3.63 0 7.26 0 11 0 C11 0.66 11 1.32 11 2 C11.85980469 1.96519531 12.71960938 1.93039063 13.60546875 1.89453125 C22.00820962 1.70210207 30.02110483 2.13608342 38 5 C38.73283203 5.81984375 38.73283203 5.81984375 39.48046875 6.65625 C41.01494812 8.32909678 41.01494812 8.32909678 43.8203125 7.85546875 C44.91085938 7.63503906 46.00140625 7.41460937 47.125 7.1875 C52.5657682 6.20158898 57.47958921 5.72397946 63 6 C64 7 64 7 64.625 9.6875 C63.91704335 13.43967024 63.6635767 13.68147936 60.6875 15.75 C58.8106792 16.8659475 56.91016166 17.94213538 55 19 C54.29182129 19.40895508 53.58364258 19.81791016 52.85400391 20.23925781 C50.41607049 21.64314517 47.96143229 23.01277612 45.5 24.375 C44.70553467 24.82842773 43.91106934 25.28185547 43.0925293 25.74902344 C34.8395103 30.17983277 27.98975848 29.30590074 19 27.9375 C16.67249227 27.58421758 14.33980433 27.25964665 12 27 C11.67 27.33 11.34 27.66 11 28 C7.37 28 3.74 28 0 28 C0 18.76 0 9.52 0 0 Z " fill="#E8C4B9" transform="translate(0,33)"/>
<path d="M0 0 C3.63 0 7.26 0 11 0 C11 6.93 11 13.86 11 21 C12.588125 21.144375 14.17625 21.28875 15.8125 21.4375 C16.70582031 21.51871094 17.59914063 21.59992187 18.51953125 21.68359375 C19.66808594 21.78800781 20.81664063 21.89242187 22 22 C22.78101074 22.15774902 23.56202148 22.31549805 24.36669922 22.47802734 C33.12930835 23.94405774 38.88544888 20.87743283 46.5 16.75 C48.24796875 15.85087891 48.24796875 15.85087891 50.03125 14.93359375 C56.4825685 11.60542127 56.4825685 11.60542127 62 7 C62.66 7 63.32 7 64 7 C64.5625 9.625 64.5625 9.625 64 13 C61.44124807 15.6485327 58.19887765 17.22843294 55 19 C54.29182129 19.40895508 53.58364258 19.81791016 52.85400391 20.23925781 C50.41607049 21.64314517 47.96143229 23.01277612 45.5 24.375 C44.70553467 24.82842773 43.91106934 25.28185547 43.0925293 25.74902344 C34.8395103 30.17983277 27.98975848 29.30590074 19 27.9375 C16.67249227 27.58421758 14.33980433 27.25964665 12 27 C11.67 27.33 11.34 27.66 11 28 C7.37 28 3.74 28 0 28 C0 18.76 0 9.52 0 0 Z " fill="#D5B3AB" transform="translate(0,33)"/>
<path d="M0 0 C3 1.9375 3 1.9375 5 5 C5.29416102 6.4081597 5.54062693 7.82676166 5.75 9.25 C6.47762653 13.73455534 8.26687013 15.50802136 11.625 18.5 C15.84580956 22.32911844 15.84580956 22.32911844 16.58984375 25.56640625 C16.5625 28.0625 16.5625 28.0625 16 32 C9.9453125 32.1953125 9.9453125 32.1953125 8 32 C7.34 31.34 6.68 30.68 6 30 C6 29.01 6 28.02 6 27 C5.34 27 4.68 27 4 27 C4 26.34 4 25.68 4 25 C3.38125 24.87625 2.7625 24.7525 2.125 24.625 C0 24 0 24 -2 22 C-3.42730185 21.69715403 -4.86774929 21.45396481 -6.3125 21.25 C-9.66471409 20.5525232 -11.7197507 19.85047841 -14.0625 17.3125 C-16.36246571 13.38030056 -16.72042154 11.48262289 -16 7 C-11.93678334 -0.31379 -8.02962043 -1.07483108 0 0 Z " fill="#FECE53" transform="translate(34,2)"/>
<path d="M0 0 C3.63 0 7.26 0 11 0 C11 9.24 11 18.48 11 28 C7.37 28 3.74 28 0 28 C0 18.76 0 9.52 0 0 Z " fill="#666E77" transform="translate(0,33)"/>
<path d="M0 0 C1.73775608 1.46440119 3.46484935 2.93782976 5.17578125 4.43359375 C6.55119279 5.61462165 7.98272103 6.73074128 9.4375 7.8125 C11.90733198 11.27026477 11.31639951 14.88680631 11 19 C4.9453125 19.1953125 4.9453125 19.1953125 3 19 C2.34 18.34 1.68 17.68 1 17 C1 16.01 1 15.02 1 14 C0.34 14 -0.32 14 -1 14 C-1 13.34 -1 12.68 -1 12 C-1.61875 11.9175 -2.2375 11.835 -2.875 11.75 C-5 11 -5 11 -6.25 8.9375 C-6.4975 8.298125 -6.745 7.65875 -7 7 C-6.21625 6.5875 -5.4325 6.175 -4.625 5.75 C-1.87434558 3.91623039 -1.29110023 2.92005847 0 0 Z " fill="#ECAA36" transform="translate(39,15)"/>
<path d="M0 0 C3.91603168 -0.45535252 5.54941106 -0.3204188 8.8125 2 C11.49168795 5.67431491 12.46212748 8.45870881 12 13 C10.3590948 16.2818104 8.9757455 18.29868292 6 20.4375 C3.62684659 21.1049494 2.29715009 20.82041075 0 20 C0.804375 19.38125 1.60875 18.7625 2.4375 18.125 C5.64970839 15.46121744 5.92105585 14.836808 6.3125 10.6875 C5.87539805 5.52969701 3.52359043 3.52359043 0 0 Z " fill="#F7BD44" transform="translate(28,2)"/>
<path d="M0 0 C1.73775608 1.46440119 3.46484935 2.93782976 5.17578125 4.43359375 C6.55119279 5.61462165 7.98272103 6.73074128 9.4375 7.8125 C11.90733198 11.27026477 11.31639951 14.88680631 11 19 C8.69 19 6.38 19 4 19 C4.66 18.67 5.32 18.34 6 18 C5.96003549 12.73285856 5.96003549 12.73285856 3.5625 8.2734375 C2.7271875 7.51933594 2.7271875 7.51933594 1.875 6.75 C0.92625 5.8425 -0.0225 4.935 -1 4 C-0.6796875 1.828125 -0.6796875 1.828125 0 0 Z " fill="#E4A134" transform="translate(39,15)"/>
</svg>
